<svg aria-hidden="true" style="position: absolute; width: 0; height: 0; overflow: hidden;" version="1.1" xmlns="http://www.w3.org/2000/svg" xmlns:xlink="http://www.w3.org/1999/xlink">
<defs>
<symbol id="arrow-left" viewBox="0 0 32 32">
<path stroke-linejoin="round" stroke-linecap="round" stroke-miterlimit="4" stroke-width="4" d="M25.333 16h-18.667"></path>
<path stroke-linejoin="round" stroke-linecap="round" stroke-miterlimit="4" stroke-width="4" d="M16 25.333l-9.333-9.333 9.333-9.333"></path>
</symbol>
<symbol id="arrow-right" viewBox="0 0 32 32">
<path stroke-linejoin="round" stroke-linecap="round" stroke-miterlimit="4" stroke-width="4" d="M6.667 16h18.667"></path>
<path stroke-linejoin="round" stroke-linecap="round" stroke-miterlimit="4" stroke-width="4" d="M16 6.667l9.333 9.333-9.333 9.333"></path>
</symbol>
<symbol id="copyright" viewBox="0 0 32 32">
<path d="M13.44 14.48c0.067-0.44 0.213-0.827 0.4-1.16s0.453-0.613 0.787-0.827c0.32-0.2 0.72-0.293 1.213-0.307 0.307 0.013 0.587 0.067 0.84 0.173 0.267 0.12 0.507 0.28 0.693 0.48s0.333 0.44 0.453 0.707 0.173 0.56 0.187 0.853h2.387c-0.027-0.627-0.147-1.2-0.373-1.72s-0.533-0.973-0.933-1.347-0.88-0.667-1.44-0.88-1.173-0.307-1.853-0.307c-0.867 0-1.627 0.147-2.267 0.453s-1.173 0.707-1.6 1.227-0.747 1.12-0.947 1.813-0.32 1.413-0.32 2.187v0.36c0 0.773 0.107 1.493 0.307 2.187s0.52 1.293 0.947 1.8 0.96 0.92 1.6 1.213 1.4 0.453 2.267 0.453c0.627 0 1.213-0.107 1.76-0.307s1.027-0.48 1.44-0.84 0.747-0.773 0.987-1.253 0.387-0.987 0.4-1.533h-2.387c-0.013 0.28-0.080 0.533-0.2 0.773s-0.28 0.44-0.48 0.613-0.427 0.307-0.693 0.4c-0.253 0.093-0.52 0.12-0.8 0.133-0.48-0.013-0.88-0.107-1.187-0.307-0.333-0.213-0.6-0.493-0.787-0.827s-0.333-0.733-0.4-1.173-0.107-0.893-0.107-1.333v-0.36c0-0.467 0.040-0.907 0.107-1.347zM16 2.667c-7.36 0-13.333 5.973-13.333 13.333s5.973 13.333 13.333 13.333 13.333-5.973 13.333-13.333-5.973-13.333-13.333-13.333zM16 26.667c-5.88 0-10.667-4.787-10.667-10.667s4.787-10.667 10.667-10.667 10.667 4.787 10.667 10.667-4.787 10.667-10.667 10.667z"></path>
</symbol>
<symbol id="favorite-heart" viewBox="0 0 32 32">
<path d="M16 30.72l-2.24-2.24c-8.32-7.36-13.76-12.32-13.76-18.4 0-4.96 3.84-8.8 8.8-8.8 2.72 0 5.44 1.28 7.2 3.36 1.76-2.080 4.48-3.36 7.2-3.36 4.96 0 8.8 3.84 8.8 8.8 0 6.080-5.44 11.040-13.76 18.4l-2.24 2.24z"></path>
</symbol>
<symbol id="film" viewBox="0 0 32 32">
<path fill="none" stroke="#fff" style="stroke: var(--color1, #fff)" stroke-linejoin="round" stroke-linecap="round" stroke-miterlimit="4" stroke-width="2.6667" d="M5.573 2.667h20.853c1.605 0 2.907 1.301 2.907 2.907v20.853c0 1.605-1.301 2.907-2.907 2.907h-20.853c-1.605 0-2.907-1.301-2.907-2.907v-20.853c0-1.605 1.301-2.907 2.907-2.907z"></path>
<path fill="none" stroke="#fff" style="stroke: var(--color1, #fff)" stroke-linejoin="round" stroke-linecap="round" stroke-miterlimit="4" stroke-width="2.6667" d="M9.333 2.667v26.667"></path>
<path fill="none" stroke="#fff" style="stroke: var(--color1, #fff)" stroke-linejoin="round" stroke-linecap="round" stroke-miterlimit="4" stroke-width="2.6667" d="M22.667 2.667v26.667"></path>
<path fill="none" stroke="#fff" style="stroke: var(--color1, #fff)" stroke-linejoin="round" stroke-linecap="round" stroke-miterlimit="4" stroke-width="2.6667" d="M2.667 16h26.667"></path>
<path fill="none" stroke="#fff" style="stroke: var(--color1, #fff)" stroke-linejoin="round" stroke-linecap="round" stroke-miterlimit="4" stroke-width="2.6667" d="M2.667 9.333h6.667"></path>
<path fill="none" stroke="#fff" style="stroke: var(--color1, #fff)" stroke-linejoin="round" stroke-linecap="round" stroke-miterlimit="4" stroke-width="2.6667" d="M2.667 22.667h6.667"></path>
<path fill="none" stroke="#fff" style="stroke: var(--color1, #fff)" stroke-linejoin="round" stroke-linecap="round" stroke-miterlimit="4" stroke-width="2.6667" d="M22.667 22.667h6.667"></path>
<path fill="none" stroke="#fff" style="stroke: var(--color1, #fff)" stroke-linejoin="round" stroke-linecap="round" stroke-miterlimit="4" stroke-width="2.6667" d="M22.667 9.333h6.667"></path>
</symbol>
<symbol id="search" viewBox="0 0 32 32">
<path fill="none" stroke="#fff" style="stroke: var(--color1, #fff)" stroke-linejoin="round" stroke-linecap="round" stroke-miterlimit="4" stroke-width="5.3333" d="M25.333 14.667c0 5.891-4.776 10.667-10.667 10.667s-10.667-4.776-10.667-10.667c0-5.891 4.776-10.667 10.667-10.667s10.667 4.776 10.667 10.667z"></path>
<path fill="none" stroke="#fff" style="stroke: var(--color1, #fff)" stroke-linejoin="round" stroke-linecap="round" stroke-miterlimit="4" stroke-width="5.3333" d="M28 28l-5.8-5.8"></path>
</symbol>
</defs>
</svg>
